<svg id="b63da691-c25b-49be-91e5-1acaa5545eb0" data-name="Layer 1" xmlns="http://www.w3.org/2000/svg" width="1200" height="900" viewBox="0 0 1200 900">
  <title>cracks copy</title>
  <polygon points="437.06 590.85 -58.79 848.79 0.38 939.72 437.06 590.85"/>
  <polygon points="901.86 668.72 1184.5 963.14 1252.09 878.28 901.86 668.72"/>
  <polygon points="730.02 596.04 743.83 694 780 830 762.15 824 786.98 1000.19 891.44 970.9 819.57 804 840 810 767.9 684 730.02 596.04"/>
  <polygon points="333.03 268.86 180 210 -34.37 91.1 -3.88 209.84 164.33 241.15 160 230 333.03 268.86"/>
  <polygon points="397.99 231.55 534.8 -152.98 428.66 -175.44 397.99 231.55"/>
  <polygon points="972.99 309.55 1109.8 -74.98 1003.66 -97.44 986.45 131 1006 111 982.68 181 972.99 309.55"/>
</svg>
