<svg id="90154f96-fef9-4f18-92ea-f40c982c026c" data-name="Layer 1" xmlns="http://www.w3.org/2000/svg" width="1200" height="900" viewBox="0 0 1200 900">
  <title>cracks</title>
  <polygon points="336.06 529.85 -159.79 787.79 -100.62 878.72 336.06 529.85"/>
  <polygon points="649.82 580.85 735.25 979.95 837.38 943.34 649.82 580.85"/>
  <polygon points="449.22 520.02 420.91 614.81 397.07 753.5 383.35 740.6 332.44 911.09 439.59 928.05 443.88 746.38 459.94 760.35 446.96 615.76 449.22 520.02"/>
  <polygon points="333.03 268.86 180 210 -34.37 91.1 -3.88 209.84 164.33 241.15 160 230 333.03 268.86"/>
  <polygon points="560.62 215.34 450.22 -177.59 350.6 -134.62 560.62 215.34"/>
  <polygon points="909.25 290.9 1261.79 85.25 1195.15 -0.37 1034.68 163.12 1062.52 160.44 999.55 198.9 909.25 290.9"/>
  <polygon points="772.87 500.12 1369.63 775.22 1316.23 869.66 1011.25 662.25 1051.9 668.01 944.49 616.85 772.87 500.12"/>
</svg>
