<svg id="bcffa2e3-9bad-4551-b933-4cce1aff9a84" data-name="Layer 1" xmlns="http://www.w3.org/2000/svg" width="1441.5" height="308.17" viewBox="0 0 1441.5 308.17">
  <title>mariana-tek</title>
  <polygon points="455.86 211.73 455.86 124.5 426.73 211.73 419.22 211.73 390.26 124.5 390.26 211.73 370.58 211.73 370.58 92.49 397.23 92.49 422.97 170.07 448.88 92.49 475.35 92.49 475.35 211.73 455.86 211.73" style="fill: #201751"/>
  <path d="M545.56,113.59l-15.73,57h31.46Zm26.28,98.14-6.61-23.6H525.88l-6.59,23.6H498L533.76,92.49h23.59l35.76,119.24Z" style="fill: #201751"/>
  <path d="M671.55,129.5c0-11.8-6.79-19.66-17.51-19.66H635.45v39.32H654c10.72,0,17.51-7.86,17.51-19.66m-.88,82.23-20.38-45H635.45v45H615.79V92.49H656.9c20.74,0,35,14.84,35,36.83,0,20.74-11.61,31.1-22.34,34l23.24,48.44Z" style="fill: #201751"/>
  <rect x="722.11" y="92.5" width="19.67" height="119.24" style="fill: #201751"/>
  <path d="M812,113.59l-15.74,57h31.47Zm26.27,98.14-6.61-23.6H792.34l-6.61,23.6H764.45L800.22,92.49h23.59l35.75,119.24Z" style="fill: #201751"/>
  <polygon points="946.59 211.73 901.9 131.29 901.9 211.73 882.23 211.73 882.23 92.49 902.25 92.49 945.7 170.61 945.7 92.49 965.53 92.49 965.53 211.73 946.59 211.73" style="fill: #201751"/>
  <path d="M1035.77,113.59l-15.74,57h31.47ZM1062,211.73l-6.61-23.6h-39.34l-6.61,23.6H988.2L1024,92.49h23.59l35.76,119.24Z" style="fill: #201751"/>
  <polygon points="1174.62 211.73 1174.62 109.83 1147.09 109.83 1147.09 92.49 1221.63 92.49 1221.63 109.83 1194.28 109.83 1194.28 211.73 1174.62 211.73" style="fill: #201751"/>
  <polygon points="1248.05 211.73 1248.05 92.49 1313.49 92.49 1313.49 109.83 1267.73 109.83 1267.73 142.19 1312.23 142.19 1312.23 159.53 1267.73 159.53 1267.73 194.4 1313.49 194.4 1313.49 211.73 1248.05 211.73" style="fill: #201751"/>
  <polygon points="1403.02 211.73 1372.28 162.56 1362.98 176.33 1362.98 211.73 1343.3 211.73 1343.3 92.49 1362.98 92.49 1362.98 149.88 1400.34 92.49 1423.39 92.49 1384.43 148.81 1426.44 211.73 1403.02 211.73" style="fill: #201751"/>
  <path d="M21.38,181.13a44.64,44.64,0,0,1,8.51-4.34,4,4,0,0,1,2.64,1.7A41.53,41.53,0,0,0,35,190.35a4.64,4.64,0,0,0,5.56,3.15c2.2-.6,4-3.25,3.16-5.55a34.91,34.91,0,0,1-2.22-12.49,16.25,16.25,0,0,1,2.6-1,14.54,14.54,0,0,1,3.6-.44,1.13,1.13,0,0,0,.51-.11A47.58,47.58,0,0,1,59.94,176s.07,0,.08.08c.7,3.53-.67,6.93-2.37,10.06a65.14,65.14,0,0,1-6.74,10.19c-5.14,6.28-11.6,11.17-19.8,12.33-2.42.35-3.74,3.42-3.15,5.57.71,2.6,3.12,3.49,5.55,3.15.83-.12,1.62-.28,2.42-.46,1.62,0,3.36-.09,4.74.74a42.39,42.39,0,0,1,1.09,5.07c.64,3.1,1.15,6.74-.15,9.73-1,2.25-.66,4.85,1.61,6.2,1.92,1.11,5.21.62,6.19-1.62,2.37-5.49,2.23-10.94,1.06-16.71-.26-1.31-.56-2.6-.93-3.86a12.93,12.93,0,0,1,.45-4.83,21.6,21.6,0,0,1,1.42-2.9,50.62,50.62,0,0,0,3.94-3.81,7.13,7.13,0,0,1,3.23.54c2.07,3.07,1.59,7.78,1.4,11.32-.34,5.81,8.7,5.78,9,0s0-12.28-3.32-17a20.55,20.55,0,0,1-1-7.51c3.32-5.69,5.61-12,4.16-18.23,0-.06.05-.1.08-.15a18.7,18.7,0,0,1,3.39-1.52h0a22.86,22.86,0,0,1,4.43-.71,29.55,29.55,0,0,1,6.29.68,37.89,37.89,0,0,1,7.95,3.1,47.61,47.61,0,0,1,9.11,6.8c1,1,2,2.06,2.94,3.13,1.15,2.62,2.09,5.86,1.65,8.63a42.92,42.92,0,0,1-1.89,4.21,41.13,41.13,0,0,1-3.68,5.37h0a3.77,3.77,0,0,0-.8.84.55.55,0,0,0-.19.09,4,4,0,0,1-.49.15c-.47.16-1,.28-1.45.42s-1.24.38-1.86.52a1.75,1.75,0,0,1-.33,0,27.39,27.39,0,0,0-7-12.24,4.65,4.65,0,0,0-1.88-1.37h0l-1.16-.27a4.5,4.5,0,0,0-3.24,1A4.57,4.57,0,0,0,79,195.8,4.52,4.52,0,0,0,80,199a24.18,24.18,0,0,1,3.29,4.05h0a23.37,23.37,0,0,1,2.07,4.62,24.07,24.07,0,0,1,.82,5.13c0,.05,0,.09,0,.13a35.55,35.55,0,0,1-2.92,5.21l0,0q-1.26.91-2.55,1.74a38.29,38.29,0,0,1-7.51,3.36,39,39,0,0,1-4.59,1,4.48,4.48,0,0,0-1.93,8,4.66,4.66,0,0,0,3.38.81c.49-.07,1-.16,1.45-.25a11.54,11.54,0,0,1,1.2,5.58,21.07,21.07,0,0,1-.7,5.06c-.09.28-.21.57-.31.84a40,40,0,0,1-6.64,11l0,0a5.37,5.37,0,0,0-2.72,3l-.08.19A4.37,4.37,0,0,0,63.3,263a1.62,1.62,0,0,0,.18.19,4.56,4.56,0,0,0,4.4,1.16c3-1,4.85-4.35,6.59-6.77a48.18,48.18,0,0,0,5.46-9.86,35.57,35.57,0,0,0,2.27-8.35c.47-3.42.14-6.84.42-10.25a.11.11,0,0,1,.06-.11l.47-.23a60.54,60.54,0,0,0,10.61-7.57l3.15-2.78a.16.16,0,0,1,.09,0,15.79,15.79,0,0,1,2.52-.49l.48.24c.08.09.16.21.24.31a29.14,29.14,0,0,1,2.34,5.52,61.48,61.48,0,0,1,2.27,14.27q.08,3.45-.19,6.9a.23.23,0,0,1-.11.11c-1.5.35-3.06.56-4.56,1a15,15,0,0,0-3.45,1.27A10.68,10.68,0,0,0,93,250.52a4.57,4.57,0,0,0,1,6.26,4.46,4.46,0,0,0,6.25-1c.06-.06.1-.13.15-.19l.3-.24a8.45,8.45,0,0,1,1-.43h0l.15,0a5.12,5.12,0,0,1,.89.85.44.44,0,0,1,0,.09,51.69,51.69,0,0,1-4,10.45,27.88,27.88,0,0,1-3.54,4.95l0,0c-.48.47-1,.91-1.5,1.34a4.58,4.58,0,0,0-.69,6.3,4.48,4.48,0,0,0,6.3.68c4.63-3.79,7.68-9.09,9.86-14.61a68.53,68.53,0,0,0,4.47-29.52,64.23,64.23,0,0,0-2.68-14.56,28.79,28.79,0,0,0-4.1-8.56.07.07,0,0,1,0,0,7.74,7.74,0,0,0-.14-.84v0c0-1.07.13-2.12.21-3.18a.12.12,0,0,1,0-.07c.22-.29.45-.56.66-.85a46.58,46.58,0,0,0,3.74-6.18c.17-.34.34-.68.5-1a.11.11,0,0,1,.21,0c1.22,2.8,2.3,5.67,3.37,8.54a131.7,131.7,0,0,0,6.47,15.41c.09.18.19.35.28.52s0,0,0,0c.77,2.36,3.71,10.76,4.58,12,2.46,3.55,5,7.05,7.5,10.58a42.07,42.07,0,0,0,8,8.86c-.78,2.11-1.62,4.2-2.58,6.26a85.2,85.2,0,0,1-12.09,18.9c-.72.85-3.09,4.32-4,5a3.32,3.32,0,0,0-1.38,1.78c5.71,1.22,11.6,2.55,17.44,2.71,4.49.11,8.65.36,13.14.62a6.09,6.09,0,0,0-2.39-3.56c-.89-.62-2.63-3.66-3.12-4.48a14.61,14.61,0,0,1-1.91-5.1c1.06.33,2.12.61,3.2.85a45.9,45.9,0,0,0,15.42.67,40.89,40.89,0,0,0,7.55-1.73c.11,0,3.71-1.36,3.81-1.47a42.85,42.85,0,0,0,14.28-10.36c.77-.87,1.51-1.75,2.22-2.68a.16.16,0,0,1,.2,0,35,35,0,0,0,11.49,4.91,38.17,38.17,0,0,0,15.89.33,35.51,35.51,0,0,0,8.42-2.82,4.52,4.52,0,0,0,1.88-6.05,4.59,4.59,0,0,0-6-1.88c-.66.31-1.34.61-2,.87a30.85,30.85,0,0,1-6.62,1.52,32.85,32.85,0,0,1-7.35-.21c-1.05-.2-2.08-.43-3.1-.73a39.64,39.64,0,0,1-5-2.87l-.18-.17c-.25-.21-.52-.45-.84-.7h0a9.13,9.13,0,0,1-1-1.85c.34-.81.66-1.62.94-2.45a4.52,4.52,0,0,0-4.88-6,4.59,4.59,0,0,0-3.57,3.1c-.33.94-.68,1.87-1.07,2.77a38.88,38.88,0,0,1-4.79,7.64,41.55,41.55,0,0,1-4.46,4.44c-1.32.32-2.68,1-4,1.39a8.45,8.45,0,0,1-3-.59c-.47-.55-.91-1.1-1.33-1.7a37.09,37.09,0,0,1-1-5.15,50.07,50.07,0,0,1,.43-11.6,76.64,76.64,0,0,1,5.54-18c2.66-2.22,6.34-.24,9.28.85,2.08.76,4.22,1.29,6.35,1.85,1.1.29,2.24.67,3.39.93a54,54,0,0,0,11.8,1.65s0,0,0,0c5,9,14.87,12.89,24.68,14s21.28.83,30-4.45c5-3,.43-10.84-4.56-7.8A26.17,26.17,0,0,1,247,238a19.2,19.2,0,0,1-2-1.82c-.14-.28-.3-.59-.43-.87A32.44,32.44,0,0,1,281,200.58c2.43.25,4.52-2.26,4.52-4.51,0-2.66-2.07-4.27-4.52-4.52A41.21,41.21,0,0,0,235.68,236a7.35,7.35,0,0,1-3.16,2c-5-.54-10.19-2.06-14-5.34a2.28,2.28,0,0,1,.31-.7c.77-.14,1.52-.31,2.28-.49a4.72,4.72,0,0,0,2.8-2,4.58,4.58,0,0,0,.56-3.37,4.7,4.7,0,0,0-3.74-3.42,4.42,4.42,0,0,0-2.28-.09,5.23,5.23,0,0,0-1.17.45,8.21,8.21,0,0,1-2.37-1.24,27.13,27.13,0,0,1,.21-5.77,24,24,0,0,1,5.18-11.56,27.5,27.5,0,0,1,4.17-3.9,4.55,4.55,0,0,0,1.45-3.16,4.49,4.49,0,0,0-4.35-4.6l-1.12.12h0a4.51,4.51,0,0,0-2,1.06,30.53,30.53,0,0,0-8.91,10.82,34.09,34.09,0,0,0-3.63,14.56c0,.8,0,1.61.08,2.42a6.35,6.35,0,0,1-2.43,1.94c-.64-.06-1.28-.14-1.91-.23a49.41,49.41,0,0,1-11.19-3.34l-1.65-.81c-1.4-1.26-3.08-3-3.19-4.56a19,19,0,0,1,.42-2.58c0-.15,0-.32,0-.48.52-.65,1-1.32,1.57-2A80.91,80.91,0,0,1,198,199.44a4.47,4.47,0,1,0-6-6.59,80.12,80.12,0,0,0-6.93,6.47,8.55,8.55,0,0,1-2.82-.71,33.94,33.94,0,0,1-2.14-2.68,39.22,39.22,0,0,1-2.42-4,1.87,1.87,0,0,1,.2-.32,16.22,16.22,0,0,1,2.81-3.32,19.71,19.71,0,0,0,3.71-.76,36.26,36.26,0,0,0,11.94-6.75A50.31,50.31,0,0,0,206.93,169a14,14,0,0,1,4.52-2.65c2,.16,4,.24,6,.22a7.85,7.85,0,0,1,2.9,3c-.22,4.15-.37,8.25,1.91,12,3,4.94,8.66,8,14,9.84,5.51,1.88,7.88-6.85,2.39-8.7-3.1-1.06-7.51-3.11-8.91-6.34-1.24-2.87-.47-6.53-.22-9.77a13.3,13.3,0,0,1,2.05-1.41q2.73-.54,5.43-1.31c7,5.9,16.19,7.95,25.26,8.22,9.61.3,20.45.25,29-4.69,5-2.9.5-10.71-4.56-7.8a23.9,23.9,0,0,1-7.17,2.63l-.56-.14c-.62-.51-1.22-1.05-1.79-1.61a25.72,25.72,0,0,1,12.47-29.2c5.08-2.82.53-10.62-4.56-7.8a34.93,34.93,0,0,0-17,38.19,17.6,17.6,0,0,1-4.44,1.43h-.55c-5.33-.12-10.85-.81-15.65-3.11,1.55-.7,3.06-1.47,4.55-2.3,5.1-2.82.54-10.62-4.56-7.8a58.92,58.92,0,0,1-7.63,3.58,8,8,0,0,1-4.16-.65,22.06,22.06,0,0,0-5.52-21.28c-4-4.18-10.43,2.21-6.39,6.39a13.07,13.07,0,0,1-.09,18.39l-3.94,1.19a1,1,0,0,0-.29.14c-1.7.06-3.4,0-5.08-.05a7.21,7.21,0,0,1-1.09-1,7.7,7.7,0,0,1-.54-1,33.44,33.44,0,0,0,.79-7.17,4.74,4.74,0,0,0-1.17-3.16,4.5,4.5,0,0,0-3.18-1.44,4.54,4.54,0,0,0-4.6,4.34,31.86,31.86,0,0,1-.27,4.14c-.14.77-.31,1.54-.51,2.3a.13.13,0,0,1-.12.1,29,29,0,0,1-5.68,1.27,30,30,0,0,1-6.35-.2,29.06,29.06,0,0,1-6.05-1.81,30.66,30.66,0,0,1-5.55-3.46,31.17,31.17,0,0,1-4.44-4.81c-.44-.66-.85-1.32-1.24-2a4.62,4.62,0,0,0-2.68-2.21,4.47,4.47,0,0,0-5.24,6.36,33.48,33.48,0,0,0,14,13.5,33.94,33.94,0,0,0,14.11,3.64c.24.09.49.2.74.32,1.41.74.47,2.4-.09,3.59a4.53,4.53,0,0,0-.37,1.13,47.59,47.59,0,0,1-6.53,5.67,28,28,0,0,1-5.37,2.94h0a19.57,19.57,0,0,1-3.4.81h0a14.67,14.67,0,0,1-2.73-.06h0a13.47,13.47,0,0,1-2.57-.81l-.38-.13c-.17-.17-.27-.3-.43-.49a40.33,40.33,0,0,1,.2-8.92,4.52,4.52,0,0,0-1.18-3.16,4.57,4.57,0,0,0-3.16-1.44,4.46,4.46,0,0,0-3.16,1.18c-.26.3-.51.6-.76.91v0a4.35,4.35,0,0,0-.68,2.21,44.73,44.73,0,0,0,1,16.42,46.31,46.31,0,0,0,6.54,14.92c.9,1.3,1.83,2.57,2.82,3.78a8.65,8.65,0,0,1,.46,2.25,18.05,18.05,0,0,1-.18,5.46c-.69,1-1.35,2.12-2,3.19,0,0-4,7.33-5,9.61a77.33,77.33,0,0,0-5.58,17.26,66.12,66.12,0,0,0-1.16,8.75,51.34,51.34,0,0,0,.29,8.76,36.47,36.47,0,0,0,1.68,7.53,7.82,7.82,0,0,1-.81,2.13,4.66,4.66,0,0,1-2.49.67,57.59,57.59,0,0,1-7.14-2.61l-.23-.19-1.41-4.1c-.09-2.11.29-4.48.34-6.09,0,0,0,0,0-.07a89.14,89.14,0,0,0,3.23-11.88c3.45-18,1-36.42-1.41-54.37-.4-3-.67-6.16-1.11-9.26,0-5.93-11.33-22-17.19-27.93,1.58-1,3.08-2.16,4.54-3.33a4.55,4.55,0,0,0,1.26.59,4.2,4.2,0,0,0,1.4.14c.43.5,1,1,1.34,1.41l3.72,4.33c1.6,1.84,4.76,1.63,6.39,0a4.61,4.61,0,0,0,0-6.39c-1.09-1.3-2.2-2.56-3.32-3.84-.83-1-1.64-2.05-2.58-3,0-.22,0-.44,0-.66s.12-.56.18-.86a71.49,71.49,0,0,0,11.25-18.59c.86-2.09,1.68-4.25,2.42-6.46a10.6,10.6,0,0,1,2.74-1.16,72.39,72.39,0,0,0,19,.75,5.92,5.92,0,0,1,1.32,1c.3.35.6.72.89,1.11a6.77,6.77,0,0,1,.73,1.67,33.15,33.15,0,0,0,4.78,20.08,4.25,4.25,0,0,0,4.78,2c4.25-.44,5-6,2.11-8.17a23.94,23.94,0,0,1-2.31-15.47,11.78,11.78,0,0,1,3.9-4.7c1.84-.39,3.69-.81,5.47-1.26,3.83-.92,7.78-2,11.67-3.26,2.6,0,7.88,1.89,8.4,1.87,8,3.82,17,4.67,26,4.72,11.36.08,23.14-.26,32.43-7.61,1.92-1.52,1.58-4.81,0-6.39-1.88-1.89-4.47-1.53-6.39,0-7,5.58-17.59,5-26,5-6.29,0-13.25-.28-19.35-2.46a7.65,7.65,0,0,1-.41-.81,3.9,3.9,0,0,1-.22-.76,39.25,39.25,0,0,0,10.87-9.57c1.48-1.93.3-5.06-1.62-6.18-2.32-1.36-4.69-.33-6.18,1.62-3.34,4.36-8.48,7.21-13.44,9.34-1,.42-2,.82-3,1.21a15.47,15.47,0,0,1-2.64-.14,16.09,16.09,0,0,1-2.7-.76,42.74,42.74,0,0,1-2.42-24,1,1,0,0,0,.09-.51c.08-.38.16-.75.25-1.13a8.24,8.24,0,0,1,2.59-1.48,6.15,6.15,0,0,1,.82-.29c5,2,11.09,2.28,15.9,2.11,9.75-.34,19.12-3.56,25-11.71,1.42-2,.34-5-1.62-6.18-2.28-1.33-4.76-.36-6.18,1.61-3.66,5.09-10.37,6.9-16.32,7.21a41.18,41.18,0,0,1-10.1-.44,18.65,18.65,0,0,1-3.22-.92,7,7,0,0,1-1.21-1.7,5,5,0,0,1,0-1.49,43.88,43.88,0,0,1,16.41-14.69c5.17-2.68.61-10.47-4.56-7.8a51.86,51.86,0,0,0-21.35,20.9c-.66.63-2.8,5.81-3.43,7.56a51.14,51.14,0,0,0,.38,34.62c-.07,1.7-.54,3.29-1.95,4.08q-2.81.66-5.69,1.25a4.23,4.23,0,0,1-2.71-2,24.77,24.77,0,0,0-9.16-18.38c-1.92-1.5-4.52-1.87-6.38,0-1.57,1.57-1.94,4.87,0,6.39a16.59,16.59,0,0,1,6.54,13.26,21.83,21.83,0,0,1-2.21,2.4c-.27.13-.56.25-.86.37a60.27,60.27,0,0,1-16.67-1.1C166,97.74,166,89.33,163,81.62a62.16,62.16,0,0,0,22.1-23.07A63.06,63.06,0,0,0,192,19.63c-.33-2.42-3.44-3.74-5.55-3.15-2.62.72-3.49,3.13-3.17,5.55a49.29,49.29,0,0,1,.4,9.3,8.16,8.16,0,0,1-2.35,1.58A33,33,0,0,1,150,15.11c-2.69-5.16-10.47-.59-7.79,4.56a41.89,41.89,0,0,0,34.21,22.27c.06.06,1.94.69,2.7,1.07A6.15,6.15,0,0,1,181,45.32,54.16,54.16,0,0,1,160.29,72.6a12.73,12.73,0,0,1-2.23-.16c-.67-1-1.33-2-2-3-2.31-3.31-4.56-6.82-8.2-8.8-5.11-2.78-9.67,5-4.56,7.8,3,1.62,4.95,5.46,6.78,8.22.35.55.72,1.1,1.07,1.65a7.65,7.65,0,0,1-1.91,3.26c-1.92.49-3.9.81-5.57,1.1a51.25,51.25,0,0,1-12.31.44,54.43,54.43,0,0,1-19.75-5.47,17.09,17.09,0,0,1-.54-1.76A51.74,51.74,0,0,0,120,56.24a12.75,12.75,0,0,1,3.42-2.1,13.16,13.16,0,0,1,2.44-.54l.67,0a27.21,27.21,0,0,0,16.85-7c4.35-3.88-2.06-10.24-6.39-6.39a17.45,17.45,0,0,1-8,4,1.6,1.6,0,0,1-.29,0,8,8,0,0,1-6.58-4.06c.25-5.43.12-10.92-.17-16.24-.3-5.78-9.34-5.82-9,0,.83,15.34.88,32.7-8.35,45.55-.7.2-1.39.44-2.15.62a9,9,0,0,1-2.05.26,74.92,74.92,0,0,1-21-28.32c-1-2.25-4.26-2.76-6.18-1.63-2.31,1.35-2.6,3.93-1.62,6.17A82.34,82.34,0,0,0,91.07,74.09c0,.69,0,1.39,0,2.1a4.13,4.13,0,0,1-.74,2.44A64.58,64.58,0,0,1,37,86.17c-5.58-1.68-7.95,7-2.4,8.71A73.49,73.49,0,0,0,99.18,83.35c1-.07,2-.09,2.44-.11l1.6,0a63.46,63.46,0,0,0,24.11,8.6.47.47,0,0,0,.09.06,8.29,8.29,0,0,1,3.19,3l.12.23c1.59,7,2.66,15-1.71,20.94-1.45,2-.31,5,1.63,6.18,2.29,1.33,4.72.35,6.18-1.62,5-6.77,4.85-15.67,3.4-23.91.09-.21-.84-3.34.64-4.64.19-.18.53,0,.81-.08a58.74,58.74,0,0,0,10-1.92,9.31,9.31,0,0,1,3.65.6,7.23,7.23,0,0,1,1,.63c.77,6.38-.68,13-2.35,19.17-3.3,12.2-9.69,23.63-19.37,31.67-.84.5-1.69,1-2.53,1.41a8.25,8.25,0,0,1-4.9.78l-.5-.19a41,41,0,0,1-5.37-9.49c-2.39-5.88-5.12-12-4.65-18.49.17-2.43-2.21-4.51-4.52-4.51a4.61,4.61,0,0,0-4.52,4.51,26.79,26.79,0,0,0,0,3.23,7.35,7.35,0,0,1-.72.85,7.07,7.07,0,0,1-2,.06c-5.93-3.5-10.57-9.56-14.38-15a4.66,4.66,0,0,0-6.18-1.62c-2,1.15-3,4.18-1.63,6.18,7.09,10,15.45,19.44,27.78,21.86.47,1.26,1,2.52,1.47,3.76,2.48,6.25,5.18,12.19,9.89,17.12,4.2,4.42,8.46,8.66,12.79,13,5,5,8.5,16.06,8.6,16.67.3,2,.59,3.92.88,5.88q.79,5.76,1.45,11.51c.89,7.71,1.72,15.46,1.93,23.22a97,97,0,0,1-.53,12.65c-.21.06-.42.18-.63.25h-.08a23.65,23.65,0,0,1-3.3-1.43,32.54,32.54,0,0,1-5.83-4.33,42.34,42.34,0,0,1-6-7.49c-.31-.53-.63-1.07-.91-1.62-1.06-2-2-4-2.88-6a12,12,0,0,1,.42-1.56,22.7,22.7,0,0,0,6.87-5.45,21.53,21.53,0,0,0,4.8-10.5,4.48,4.48,0,0,0-4-4.88,4.6,4.6,0,0,0-3.22,1,4.84,4.84,0,0,0-1.66,3.06c0,.18-.11.49-.15.69a18.8,18.8,0,0,1-1.08,2.78h0a17.4,17.4,0,0,1-2.07,2.81v0a18.09,18.09,0,0,1-1.92,1.6c-.47,0-.81,0-1.27.05l-.92-.58-.06-.07c-.19-.53-.4-1.08-.61-1.64a89.34,89.34,0,0,0-7.29-15.37h0a5.52,5.52,0,0,0-.8-1.52,3.71,3.71,0,0,0-.58-.61s0,0,0,0c-.28-.41-.57-.83-.87-1.24a61.46,61.46,0,0,0-7.42-8.29,49.94,49.94,0,0,0-7.63-6l-.22-.13c-.58-.83-1.13-1.65-1.66-2.48a11.87,11.87,0,0,1-2-7.45c0-.54-.14-1.95-.1-2.2a42,42,0,0,0-2-19,40.58,40.58,0,0,0-4.21-8.57,37.43,37.43,0,0,0-6.18-7.29,4.25,4.25,0,0,0-3.37-.81A4.55,4.55,0,0,0,75.18,123a4.66,4.66,0,0,0-.81,3.38A4.57,4.57,0,0,0,75.84,129c-.11-.11-.21-.2-.3-.31a35.45,35.45,0,0,1,5,6.13,15,15,0,0,1-.52,2.89,64.53,64.53,0,0,1-33.86,6.4c-.67-.58-1.33-1.14-2-1.75l-.53-.5a109.09,109.09,0,0,0-1.92-11.62,16.37,16.37,0,0,1,.11-1.72,12.64,12.64,0,0,1,.8-2.53A38.3,38.3,0,0,1,59,121.35c5.78-.31,5.82-9.34,0-9a48.73,48.73,0,0,0-18,4.42c-.58,0-1.14.13-1.72.2L39,117a13.92,13.92,0,0,1-1.58-.68c-.14-.19-.27-.39-.4-.6a28.06,28.06,0,0,0-9-11c-2-1.42-5-.34-6.18,1.62-1.33,2.29-.37,4.75,1.61,6.18,4.22,3,6.08,7.71,7.53,12.49v0c0,.78,3.23,8.82,3.26,14.4a7.64,7.64,0,0,1-.28,1.62s0,0-.08.06a2.38,2.38,0,0,1-1.07.43,59.45,59.45,0,0,1-10.5-4.31c-5.15-2.7-9.72,5.1-4.56,7.8a73.61,73.61,0,0,0,64.87,1.44,5.81,5.81,0,0,1,.71.11,5.57,5.57,0,0,1,1.08.4,4.59,4.59,0,0,1,.55.61c.15,1,.24,2,.29,3.08a35.78,35.78,0,0,1-.78,8.12c-.19.7-.38,1.39-.61,2.1l-.11.1-.92.71a12.84,12.84,0,0,1-2,1.17.19.19,0,0,1-.09,0l-.22,0a26.3,26.3,0,0,0-16.39,3.54,22.71,22.71,0,0,1-4.44.07,54,54,0,0,0-42.85,6.82c-4.86,3.16-.33,11,4.56,7.8" style="fill: #f5333f"/>
</svg>
