<svg id="46df8dcd-9fef-47ac-af81-429b548e3f30" data-name="Layer 1" xmlns="http://www.w3.org/2000/svg" width="1200" height="900" viewBox="0 0 1200 900">
  <title>specialization</title>
  <text transform="translate(512.25 190)" style="font-size: 30px;font-family: ChevinPro-Bold, Chevin Pro;font-weight: 700">WEBM<tspan x="87.03" y="0" style="letter-spacing: 0.012972005208333333em">A</tspan><tspan x="104.76" y="0" style="letter-spacing: -0.018001302083333334em">S</tspan><tspan x="121.8" y="0" style="letter-spacing: 0.000016276041666666666em">TER</tspan></text>
  <text transform="translate(853.58 600)" style="font-size: 30px;font-family: ChevinPro-Bold, Chevin Pro;font-weight: 700"><tspan style="letter-spacing: -0.01298828125em">U<tspan x="19.05" y="0" style="letter-spacing: -0.017008463541666668em">X</tspan><tspan x="35.25" y="0" xml:space="preserve" style="letter-spacing: 0.000016276041666666666em"> ENGINEER/</tspan></tspan><tspan x="1.17" y="36">FE DESIGNER/</tspan><tspan x="-1.99" y="72">UI DEVE</tspan><tspan x="106.48" y="72" style="letter-spacing: -0.034993489583333336em">L</tspan><tspan x="121.69" y="72">OPER</tspan></text>
  <g>
    <text transform="translate(484.26 310)" style="font-size: 30px;font-family: ChevinPro-Bold, Chevin Pro;font-weight: 700">WEB DEVE<tspan x="143.13" y="0" style="letter-spacing: -0.03497721354166667em">L</tspan><tspan x="158.34" y="0" style="letter-spacing: -0.000016276041666666666em">OPER</tspan></text>
    <line x1="599.5" y1="209.5" x2="600" y2="270" style="fill: none;stroke: #000;stroke-linecap: round;stroke-miterlimit: 10;stroke-width: 10px"/>
  </g>
  <g>
    <text transform="translate(286.19 440)" style="font-size: 30px;font-family: ChevinPro-Bold, Chevin Pro;font-weight: 700"><tspan style="letter-spacing: -0.005989583333333334em">B<tspan x="19.08" y="0" style="letter-spacing: -0.000016276041666666666em">ACKEND</tspan></tspan><tspan x="-15.87" y="36">DEVE</tspan><tspan x="55.14" y="36" style="letter-spacing: -0.034993489583333336em">L</tspan><tspan x="70.35" y="36">OPER</tspan></text>
    <text transform="translate(775.53 440)" style="font-size: 30px;font-family: ChevinPro-Bold, Chevin Pro;font-weight: 700">FRONTEND<tspan x="-5.2" y="36">DEVE</tspan><tspan x="65.8" y="36" style="letter-spacing: -0.034993489583333336em">L</tspan><tspan x="81.01" y="36">OPER</tspan></text>
    <polyline points="350 400 600 340 850 400" style="fill: none;stroke: #000;stroke-linecap: round;stroke-miterlimit: 10;stroke-width: 10px"/>
  </g>
  <g>
    <text transform="translate(380.03 600)" style="font-size: 30px;font-family: ChevinPro-Bold, Chevin Pro;font-weight: 700">D<tspan x="19.71" y="0" style="letter-spacing: -0.064990234375em">AT</tspan><tspan x="51.21" y="0">A</tspan><tspan x="68.55" y="0" style="letter-spacing: -0.005989583333333334em">B</tspan><tspan x="87.63" y="0" style="letter-spacing: 0.012972005208333333em">A</tspan><tspan x="105.36" y="0">SE</tspan><tspan x="-7.41" y="36">SPECIALI</tspan><tspan x="112.8" y="36" style="letter-spacing: -0.018001302083333334em">ST</tspan></text>
    <text transform="translate(195.7 600)" style="font-size: 30px;font-family: ChevinPro-Bold, Chevin Pro;font-weight: 700">DE<tspan x="36.72" y="0" style="letter-spacing: -0.006005859375em">V</tspan><tspan x="53.82" y="0">O</tspan><tspan x="73.26" y="0" style="letter-spacing: -0.009993489583333333em">P</tspan><tspan x="91.02" y="0">S</tspan></text>
    <text transform="translate(669.39 600)" style="font-size: 30px;font-family: ChevinPro-Bold, Chevin Pro;font-weight: 700"><tspan style="letter-spacing: -0.018994140625em">J<tspan x="13.38" y="0" style="letter-spacing: -0.019986979166666665em">A</tspan><tspan x="30.12" y="0" style="letter-spacing: -0.019010416666666665em">V</tspan><tspan x="46.83" y="0" style="letter-spacing: 0.01298828125em">A</tspan><tspan x="64.56" y="0" style="letter-spacing: -0.000016276041666666666em">SCRI</tspan><tspan x="125.94" y="0" style="letter-spacing: -0.009993489583333333em">P</tspan><tspan x="143.7" y="0" style="letter-spacing: -0.017985026041666668em">T</tspan></tspan><tspan x="11.81" y="36">ENGINEER</tspan></text>
    <polyline points="250 560 350 510 450 560" style="fill: none;stroke: #000;stroke-linecap: round;stroke-miterlimit: 10;stroke-width: 10px"/>
    <polyline points="750 560 850 510 950 560" style="fill: none;stroke: #000;stroke-linecap: round;stroke-miterlimit: 10;stroke-width: 10px"/>
  </g>
</svg>
