<svg id="d0836ee1-64fb-4112-bcf0-d559ee1eeb06" data-name="Layer 1" xmlns="http://www.w3.org/2000/svg" width="1200" height="900" viewBox="0 0 1200 900">
  <title>specialization</title>
  <text transform="translate(512.25 120)" style="font-size: 30px;font-family: ChevinPro-Bold, Chevin Pro;font-weight: 700">WEBM<tspan x="87.03" y="0" style="letter-spacing: 0.012972005208333333em">A</tspan><tspan x="104.76" y="0" style="letter-spacing: -0.018001302083333334em">S</tspan><tspan x="121.8" y="0" style="letter-spacing: 0.000016276041666666666em">TER</tspan></text>
  <text transform="translate(484.26 240)" style="font-size: 30px;font-family: ChevinPro-Bold, Chevin Pro;font-weight: 700">WEB DEVE<tspan x="143.13" y="0" style="letter-spacing: -0.03497721354166667em">L</tspan><tspan x="158.34" y="0" style="letter-spacing: -0.000016276041666666666em">OPER</tspan></text>
  <text transform="translate(286.19 360)" style="font-size: 30px;font-family: ChevinPro-Bold, Chevin Pro;font-weight: 700"><tspan style="letter-spacing: -0.005989583333333334em">B<tspan x="19.08" y="0" style="letter-spacing: -0.000016276041666666666em">ACKEND</tspan></tspan><tspan x="-15.87" y="36">DEVE</tspan><tspan x="55.14" y="36" style="letter-spacing: -0.034993489583333336em">L</tspan><tspan x="70.35" y="36">OPER</tspan></text>
  <text transform="translate(775.53 360)" style="font-size: 30px;font-family: ChevinPro-Bold, Chevin Pro;font-weight: 700">FRONTEND<tspan x="-5.2" y="36">DEVE</tspan><tspan x="65.8" y="36" style="letter-spacing: -0.034993489583333336em">L</tspan><tspan x="81.01" y="36">OPER</tspan></text>
  <text transform="translate(380.03 490)" style="font-size: 30px;font-family: ChevinPro-Bold, Chevin Pro;font-weight: 700">D<tspan x="19.71" y="0" style="letter-spacing: -0.064990234375em">AT</tspan><tspan x="51.21" y="0">A</tspan><tspan x="68.55" y="0" style="letter-spacing: -0.005989583333333334em">B</tspan><tspan x="87.63" y="0" style="letter-spacing: 0.012972005208333333em">A</tspan><tspan x="105.36" y="0">SE</tspan><tspan x="-7.41" y="36">SPECIALI</tspan><tspan x="112.8" y="36" style="letter-spacing: -0.018001302083333334em">ST</tspan></text>
  <text transform="translate(195.7 490)" style="font-size: 30px;font-family: ChevinPro-Bold, Chevin Pro;font-weight: 700">DE<tspan x="36.72" y="0" style="letter-spacing: -0.006005859375em">V</tspan><tspan x="53.82" y="0">O</tspan><tspan x="73.26" y="0" style="letter-spacing: -0.009993489583333333em">P</tspan><tspan x="91.02" y="0">S</tspan></text>
  <text transform="translate(669.03 490)" style="font-size: 30px;font-family: ChevinPro-Bold, Chevin Pro;font-weight: 700"><tspan style="letter-spacing: -0.018994140625em">J</tspan><tspan x="13.38" y="0">A</tspan><tspan x="30.72" y="0" style="letter-spacing: 0.014990234375em">C</tspan><tspan x="47.55" y="0" style="letter-spacing: 0.012972005208333333em">A</tspan><tspan x="65.28" y="0">SCRI</tspan><tspan x="126.66" y="0" style="letter-spacing: -0.009993489583333333em">P</tspan><tspan x="144.42" y="0" style="letter-spacing: -0.017985026041666668em">T</tspan><tspan x="12.17" y="36">ENGINEER</tspan></text>
  <text transform="translate(869.03 490)" style="font-size: 30px;font-family: ChevinPro-Bold, Chevin Pro;font-weight: 700"><tspan style="letter-spacing: -0.018994140625em">J</tspan><tspan x="13.38" y="0">A</tspan><tspan x="30.72" y="0" style="letter-spacing: 0.014990234375em">C</tspan><tspan x="47.55" y="0" style="letter-spacing: 0.012972005208333333em">A</tspan><tspan x="65.28" y="0">SCRI</tspan><tspan x="126.66" y="0" style="letter-spacing: -0.009993489583333333em">P</tspan><tspan x="144.42" y="0" style="letter-spacing: -0.017985026041666668em">T</tspan><tspan x="12.17" y="36">ENGINEER</tspan></text>
  <line x1="599.5" y1="139.5" x2="600" y2="200" style="fill: none;stroke: #000;stroke-linecap: round;stroke-miterlimit: 10;stroke-width: 10px"/>
  <polyline points="599.5 259.5 599.5 270 599.5 290" style="fill: none;stroke: #000;stroke-linecap: round;stroke-miterlimit: 10;stroke-width: 10px"/>
  <line x1="849.5" y1="289.5" x2="849.5" y2="320" style="fill: none;stroke: #000;stroke-linecap: round;stroke-miterlimit: 10;stroke-width: 10px"/>
  <line x1="349.5" y1="289.5" x2="349.5" y2="320" style="fill: none;stroke: #000;stroke-linecap: round;stroke-miterlimit: 10;stroke-width: 10px"/>
</svg>
