<svg xmlns="http://www.w3.org/2000/svg" width="1200" height="900" viewBox="0 0 1200 900">
  <title>team-shape-3</title>
  <g style="isolation: isolate">
    <g id="c4ab7eab-f23d-4c87-99b7-afae8ea8828f" data-name="Layer 1">
      <path d="M401,540H551c-60,0-44.77-220-100-220-29.16,0-38.68,61.33-50,119.23Z" style="fill: #f26419;fill-rule: evenodd;mix-blend-mode: overlay"/>
      <path d="M451,540c60,0,44.77-220,100-220s40,220,100,220" style="fill: #f6ae2d;fill-rule: evenodd;mix-blend-mode: overlay"/>
      <path d="M551,540c60,0,44.77-220,100-220s40,220,100,220" style="fill: #55dde0;fill-rule: evenodd;mix-blend-mode: overlay"/>
      <path d="M801,439.23C789.68,381.33,780.16,320,751,320c-55.23,0-40,220-100,220H801Z" style="fill: #33658a;fill-rule: evenodd;mix-blend-mode: overlay"/>
      <text transform="translate(670.64 679.66) rotate(-45)" style="font-size: 15px;font-family: ChevinPro-Bold, Chevin Pro;font-weight: 700">T<tspan x="9.03" y="0" style="letter-spacing: 0.011979166666666667em">E</tspan><tspan x="17.71" y="0">AM MEMBER #4</tspan></text>
      <text transform="translate(570.64 679.66) rotate(-45)" style="font-size: 15px;font-family: ChevinPro-Bold, Chevin Pro;font-weight: 700">T<tspan x="9.03" y="0" style="letter-spacing: 0.011979166666666667em">E</tspan><tspan x="17.71" y="0">AM MEMBER #3</tspan></text>
      <text transform="translate(470.64 679.66) rotate(-45)" style="font-size: 15px;font-family: ChevinPro-Bold, Chevin Pro;font-weight: 700">T<tspan x="9.03" y="0" style="letter-spacing: 0.011979166666666667em">E</tspan><tspan x="17.71" y="0">AM MEMBER #2</tspan></text>
      <text transform="translate(370.64 679.66) rotate(-45)" style="font-size: 15px;font-family: ChevinPro-Bold, Chevin Pro;font-weight: 700">T<tspan x="9.03" y="0" style="letter-spacing: 0.011979166666666667em">E</tspan><tspan x="17.71" y="0">AM MEMBER #1</tspan></text>
      <line x1="399.5" y1="299.5" x2="399.5" y2="559.74" style="fill: none;stroke: #000;stroke-linecap: round;stroke-miterlimit: 10;stroke-width: 10px"/>
      <line x1="799" y1="299.76" x2="799" y2="560" style="fill: none;stroke: #000;stroke-linecap: round;stroke-miterlimit: 10;stroke-width: 10px"/>
      <g style="opacity: 0.5">
        <g>
          <line x1="499" y1="299.76" x2="499" y2="304.76" style="fill: none;stroke: #000;stroke-linecap: round;stroke-miterlimit: 10;stroke-width: 10px"/>
          <line x1="499" y1="324.01" x2="499" y2="545.38" style="fill: none;stroke: #000;stroke-linecap: round;stroke-miterlimit: 10;stroke-width: 10px;stroke-dasharray: 9.624603271484375,19.24920654296875"/>
          <line x1="499" y1="555" x2="499" y2="560" style="fill: none;stroke: #000;stroke-linecap: round;stroke-miterlimit: 10;stroke-width: 10px"/>
        </g>
      </g>
      <g style="opacity: 0.5">
        <g>
          <line x1="700" y1="299.76" x2="700" y2="304.76" style="fill: none;stroke: #000;stroke-linecap: round;stroke-miterlimit: 10;stroke-width: 10px"/>
          <line x1="700" y1="324.01" x2="700" y2="545.38" style="fill: none;stroke: #000;stroke-linecap: round;stroke-miterlimit: 10;stroke-width: 10px;stroke-dasharray: 9.624603271484375,19.24920654296875"/>
          <line x1="700" y1="555" x2="700" y2="560" style="fill: none;stroke: #000;stroke-linecap: round;stroke-miterlimit: 10;stroke-width: 10px"/>
        </g>
      </g>
      <text transform="translate(518.1 280)" style="font-size: 15px;font-family: ChevinPro-Bold, Chevin Pro;font-weight: 700"><tspan style="letter-spacing: -0.005989583333333334em">B</tspan><tspan x="9.54" y="0">ACKEND</tspan></text>
      <text transform="translate(642.12 280)" style="font-size: 15px;font-family: ChevinPro-Bold, Chevin Pro;font-weight: 700">JS</text>
      <text transform="translate(742.94 280)" style="font-size: 15px;font-family: ChevinPro-Bold, Chevin Pro;font-weight: 700">UI</text>
      <text transform="translate(424.48 280)" style="font-size: 15px;font-family: ChevinPro-Bold, Chevin Pro;font-weight: 700">DESIGN</text>
      <g style="opacity: 0.5">
        <g>
          <line x1="600" y1="299.76" x2="600" y2="304.76" style="fill: none;stroke: #000;stroke-linecap: round;stroke-miterlimit: 10;stroke-width: 10px"/>
          <line x1="600" y1="324.01" x2="600" y2="545.38" style="fill: none;stroke: #000;stroke-linecap: round;stroke-miterlimit: 10;stroke-width: 10px;stroke-dasharray: 9.624603271484375,19.24920654296875"/>
          <line x1="600" y1="555" x2="600" y2="560" style="fill: none;stroke: #000;stroke-linecap: round;stroke-miterlimit: 10;stroke-width: 10px"/>
        </g>
      </g>
    </g>
  </g>
</svg>
