<svg id="b1bcd1df-225d-40dd-9600-e35f8546982c" data-name="Layer 1" xmlns="http://www.w3.org/2000/svg" xmlns:xlink="http://www.w3.org/1999/xlink" width="1200" height="900" viewBox="0 0 1200 900">
  <defs>
    <linearGradient id="bdeaab0d-926b-409e-848e-712b149dc83d" x1="400" y1="530" x2="800" y2="530" gradientUnits="userSpaceOnUse">
      <stop offset="0" stop-color="#f6ae2d"/>
      <stop offset="0.5" stop-color="#55dde0"/>
      <stop offset="1" stop-color="#33658a"/>
    </linearGradient>
    <linearGradient id="840c1e23-b3ee-49be-a392-92359fdff5b7" y1="470" y2="470" xlink:href="#bdeaab0d-926b-409e-848e-712b149dc83d"/>
    <linearGradient id="6c671885-3bb0-469d-a749-2caaba0438a8" y1="400" y2="400" xlink:href="#bdeaab0d-926b-409e-848e-712b149dc83d"/>
    <linearGradient id="658666b0-bcdb-406c-adf6-f8e308278a4f" y1="340" y2="340" xlink:href="#bdeaab0d-926b-409e-848e-712b149dc83d"/>
  </defs>
  <title>team-shape-1</title>
  <g>
    <rect x="400" y="510" width="400" height="40" style="fill: url(#bdeaab0d-926b-409e-848e-712b149dc83d)"/>
    <rect x="400" y="450" width="400" height="40" style="fill: url(#840c1e23-b3ee-49be-a392-92359fdff5b7)"/>
    <rect x="400" y="380" width="400" height="40" style="fill: url(#6c671885-3bb0-469d-a749-2caaba0438a8)"/>
    <rect x="400" y="320" width="400" height="40" style="fill: url(#658666b0-bcdb-406c-adf6-f8e308278a4f)"/>
    <text transform="translate(320 350)" style="font-size: 15px;font-family: ChevinPro-Bold, Chevin Pro;font-weight: 700">DE<tspan x="18.36" y="0" style="letter-spacing: -0.010970052083333333em">V</tspan><tspan x="26.83" y="0" xml:space="preserve" style="letter-spacing: -0.00003255208333333333em"> #1</tspan></text>
    <text transform="translate(320 410)" style="font-size: 15px;font-family: ChevinPro-Bold, Chevin Pro;font-weight: 700">DE<tspan x="18.36" y="0" style="letter-spacing: -0.010970052083333333em">V</tspan><tspan x="26.83" y="0" xml:space="preserve" style="letter-spacing: -0.00003255208333333333em"> #2</tspan></text>
    <text transform="translate(320 470)" style="font-size: 15px;font-family: ChevinPro-Bold, Chevin Pro;font-weight: 700">DE<tspan x="18.36" y="0" style="letter-spacing: -0.010970052083333333em">V</tspan><tspan x="26.83" y="0" xml:space="preserve" style="letter-spacing: -0.00003255208333333333em"> #3</tspan></text>
    <text transform="translate(320 530)" style="font-size: 15px;font-family: ChevinPro-Bold, Chevin Pro;font-weight: 700">DE<tspan x="18.36" y="0" style="letter-spacing: -0.010970052083333333em">V</tspan><tspan x="26.83" y="0" xml:space="preserve" style="letter-spacing: -0.00003255208333333333em"> #4</tspan></text>
    <line x1="399.5" y1="299.5" x2="399.5" y2="559.74" style="fill: none;stroke: #000;stroke-linecap: round;stroke-miterlimit: 10;stroke-width: 10px"/>
    <line x1="801" y1="299.76" x2="801" y2="560" style="fill: none;stroke: #000;stroke-linecap: round;stroke-miterlimit: 10;stroke-width: 10px"/>
    <g style="opacity: 0.5">
      <g>
        <line x1="499" y1="299.76" x2="499" y2="304.76" style="fill: none;stroke: #000;stroke-linecap: round;stroke-miterlimit: 10;stroke-width: 10px"/>
        <line x1="499" y1="324.01" x2="499" y2="545.38" style="fill: none;stroke: #000;stroke-linecap: round;stroke-miterlimit: 10;stroke-width: 10px;stroke-dasharray: 9.624603271484375,19.24920654296875"/>
        <line x1="499" y1="555" x2="499" y2="560" style="fill: none;stroke: #000;stroke-linecap: round;stroke-miterlimit: 10;stroke-width: 10px"/>
      </g>
    </g>
    <g style="opacity: 0.5">
      <g>
        <line x1="599" y1="299.76" x2="599" y2="304.76" style="fill: none;stroke: #000;stroke-linecap: round;stroke-miterlimit: 10;stroke-width: 10px"/>
        <line x1="599" y1="324.01" x2="599" y2="545.38" style="fill: none;stroke: #000;stroke-linecap: round;stroke-miterlimit: 10;stroke-width: 10px;stroke-dasharray: 9.624603271484375,19.24920654296875"/>
        <line x1="599" y1="555" x2="599" y2="560" style="fill: none;stroke: #000;stroke-linecap: round;stroke-miterlimit: 10;stroke-width: 10px"/>
      </g>
    </g>
    <g style="opacity: 0.5">
      <g>
        <line x1="699" y1="299.76" x2="699" y2="304.76" style="fill: none;stroke: #000;stroke-linecap: round;stroke-miterlimit: 10;stroke-width: 10px"/>
        <line x1="699" y1="324.01" x2="699" y2="545.38" style="fill: none;stroke: #000;stroke-linecap: round;stroke-miterlimit: 10;stroke-width: 10px;stroke-dasharray: 9.624603271484375,19.24920654296875"/>
        <line x1="699" y1="555" x2="699" y2="560" style="fill: none;stroke: #000;stroke-linecap: round;stroke-miterlimit: 10;stroke-width: 10px"/>
      </g>
    </g>
    <text transform="translate(418.1 280)" style="font-size: 15px;font-family: ChevinPro-Bold, Chevin Pro;font-weight: 700"><tspan style="letter-spacing: -0.005989583333333334em">B</tspan><tspan x="9.54" y="0">ACKEND</tspan></text>
    <text transform="translate(712.76 280)" style="font-size: 15px;font-family: ChevinPro-Bold, Chevin Pro;font-weight: 700">FRONTEND</text>
  </g>
  <g>
    <path d="M197,59.81c-2.33.12-5.36.38-7.11.64-5.55.8-13.51,4.17-19.9,8.42a56.81,56.81,0,0,0-9.46,7.72,45.34,45.34,0,0,0-8,10.34l-1.07,1.83-1.23-.58a46,46,0,0,0-28.62-2.84A47.31,47.31,0,0,0,102.21,95.8c-.63.57-1.26,1.11-1.38,1.21-.4.29-3.16,3.31-4.14,4.53a41.45,41.45,0,0,0-4,6.27c-2.51,5-4.67,12.32-5,16.85l-.08,1.3-3,1.47a41.86,41.86,0,0,0-12.37,9.11,41.15,41.15,0,0,0-7.77,10.56,41.7,41.7,0,0,0-3.85,26.45,42.29,42.29,0,0,0,11.41,21.69c6.51,6.76,11.49,9.7,20,11.86,4.44,1.11,8.76,1.44,21.38,1.64,2.29,0,5.5.08,7.1.12,14.62.29,106.3.46,114.08.2,10-.32,14.63-.66,18.88-1.38a41.11,41.11,0,0,0,11.06-3.48A41,41,0,0,0,287,181.09a45.26,45.26,0,0,0,2.54-22.46,44.61,44.61,0,0,0-7.16-17.49,52.65,52.65,0,0,0-7.92-8.56,43,43,0,0,0-16.81-9c-1.39-.37-1.68-.49-1.68-.67s.14-1.25.32-2.53a33.54,33.54,0,0,0,.32-6.07,39.65,39.65,0,0,0-.83-9.22A59,59,0,0,0,244.7,80.93,53.83,53.83,0,0,0,230.44,68c-5.81-3.48-15.4-7.24-20.16-7.89A84.84,84.84,0,0,0,197,59.81Z" style="fill: #f26419"/>
    <text transform="translate(95.96 170)" style="font-size: 30px;fill: #fff;font-family: ChevinPro-Bold, Chevin Pro;font-weight: 700">DESIGN/<tspan x="112.83" y="0" style="letter-spacing: -0.01298828125em">U</tspan><tspan x="131.88" y="0" style="letter-spacing: -0.017008463541666668em">X</tspan></text>
  </g>
</svg>
